<?xml version="1.0" encoding="UTF-8" standalone="no"?>
<svg
   xmlns:dc="http://purl.org/dc/elements/1.1/"
   xmlns:cc="http://creativecommons.org/ns#"
   xmlns:rdf="http://www.w3.org/1999/02/22-rdf-syntax-ns#"
   xmlns:svg="http://www.w3.org/2000/svg"
   xmlns="http://www.w3.org/2000/svg"
   xmlns:sodipodi="http://sodipodi.sourceforge.net/DTD/sodipodi-0.dtd"
   xmlns:inkscape="http://www.inkscape.org/namespaces/inkscape"
   width="16"
   height="16"
   viewBox="0 0 4.2333333 4.2333333"
   version="1.1"
   id="svg8"
   sodipodi:docname="dugwell_abandoned.svg"
   inkscape:version="1.0 (4035a4f, 2020-05-01)">
  <defs
     id="defs18" />
  <sodipodi:namedview
     inkscape:document-rotation="0"
     pagecolor="#ffffff"
     bordercolor="#666666"
     borderopacity="1"
     objecttolerance="10"
     gridtolerance="10"
     guidetolerance="10"
     inkscape:pageopacity="0"
     inkscape:pageshadow="2"
     inkscape:window-width="1401"
     inkscape:window-height="953"
     id="namedview16"
     showgrid="false"
     inkscape:zoom="22.155298"
     inkscape:cx="2.9249092"
     inkscape:cy="11.676438"
     inkscape:window-x="1495"
     inkscape:window-y="23"
     inkscape:window-maximized="0"
     inkscape:current-layer="svg8" />
  <metadata
     id="metadata5">
    <rdf:RDF>
      <cc:Work
         rdf:about="">
        <dc:format>image/svg+xml</dc:format>
        <dc:type
           rdf:resource="http://purl.org/dc/dcmitype/StillImage" />
        <dc:title></dc:title>
      </cc:Work>
    </rdf:RDF>
  </metadata>
  <path
     id="path843"
     style="fill:#ff0000;stroke:#000001;stroke-width:0.0518044"
     d="M 4.192047,2.1050808 A 2.0869663,2.0812066 0 0 1 2.1050808,4.1862873 2.0869663,2.0812066 0 0 1 0.01811444,2.1050808 2.0869663,2.0812066 0 0 1 2.1050808,0.02387416 2.0869663,2.0812066 0 0 1 4.192047,2.1050808 Z" />
  <path
     style="stroke-width:0.00596879"
     d="m 0.98924786,3.4371852 c 0.14260144,0.040114 0.34149814,0.071541 0.57520604,0.090875 0.1699695,0.013974 0.3507882,0.021105 0.5374352,0.021105 0.1795895,0 0.353889,-0.00659 0.5180422,-0.019572 0.2386862,-0.018878 0.4422186,-0.050261 0.5885995,-0.090748 0.1696758,-0.046929 0.2521593,-0.1030671 0.2521593,-0.171626 l 0.00715,-2.36730697 A 0.16368235,0.15590936 0 0 0 3.3044938,0.7427456 L 0.90631874,0.74321882 A 0.16384748,0.15606665 0 0 0 0.74302779,0.89945438 V 3.2672211 c 0,0.067761 0.0805443,0.1233583 0.2462206,0.1699719 z M 1.1024503,3.1274346 1.113625,2.8537776 c 0.1260764,0.026005 0.2807871,0.046969 0.4510623,0.060991 0.1545942,0.012813 0.3189678,0.019806 0.4890227,0.020929 v 0.277688 C 1.8863093,3.2122815 1.7241069,3.2054264 1.5711762,3.1928343 1.3909628,3.1778922 1.229794,3.1553658 1.1024455,3.1274329 Z M 2.5800195,2.5717845 V 2.8492398 C 2.4275716,2.8603603 2.2669778,2.8660521 2.1018887,2.8660521 H 2.090452 C 1.9223847,2.8657899 1.7598337,2.8596455 1.606426,2.8478955 L 1.621672,2.5716054 c 0.1532488,0.011065 0.3145215,0.016752 0.480216,0.016752 0.027656,0 0.052731,-1.34e-4 0.076606,-4.102e-4 0.1379778,-0.00148 0.2727937,-0.00694 0.4015246,-0.016166 z M 2.2147859,2.5175107 V 2.3070872 c 0.243065,-0.00382 0.4731095,-0.019806 0.670141,-0.046702 l 0.00793,0.2085939 c -0.086293,0.012198 -0.1799995,0.022333 -0.2791603,0.030165 -0.1273798,0.010043 -0.2614123,0.016138 -0.3989008,0.01834 z m 0.3652336,0.9449047 c -0.1522338,0.011121 -0.3128153,0.016842 -0.4781308,0.016842 -0.17222,0 -0.3392231,-0.00618 -0.4972117,-0.018245 V 3.2655361 c 0.1545333,0.011652 0.3176223,0.017727 0.4857142,0.01799 h 0.011502 c 0.1649117,0 0.3254749,-0.00562 0.4781306,-0.016601 z M 2.6136562,3.1943451 C 2.4590129,3.2065288 2.295398,3.2129143 2.1270554,3.2135046 V 2.9358103 c 0.1703728,-5.678e-4 0.3360245,-0.00706 0.49268,-0.019403 0.096182,-0.00765 0.1869466,-0.01735 0.2705673,-0.028871 v 0.2769833 c -0.085547,0.012044 -0.1784089,0.02207 -0.2766158,0.029824 z m 0.7736445,0.072868 c 0,0.041943 -0.1805437,0.1417483 -0.733892,0.1894226 V 3.2612194 c 0.099405,-0.00846 0.1932581,-0.019222 0.279307,-0.032115 0.2201676,-0.032896 0.3720526,-0.075345 0.454585,-0.1268118 z m 0,-0.2655769 c 0,0.023756 -0.077498,0.095536 -0.423578,0.1517849 V 2.8767177 c 0.2034595,-0.03215 0.3449779,-0.072974 0.423578,-0.1220056 z m 0,-0.3476565 c 0,0.035744 -0.1241505,0.1074482 -0.46615,0.1584493 -0.081981,0.012268 -0.1718956,0.022668 -0.267742,0.030985 V 2.5660175 c 0.1007754,-0.00859 0.1958269,-0.019532 0.282891,-0.032622 0.218192,-0.032826 0.3689089,-0.075101 0.451001,-0.1262999 z m 0,-0.3475977 c 0,0.015542 -0.029027,0.044773 -0.11083,0.076003 C 3.2020547,2.410791 3.0952054,2.436701 2.9658634,2.457863 L 2.9579734,2.249701 Q 3.2678508,2.201263 3.3873039,2.1267862 Z M 3.2211782,0.81264887 h 0.083315 a 0.08903331,0.08480528 0 0 1 0.063604,0.0252471 0.09027482,0.08598782 0 0 1 0.026382,0.0615686 L 3.3877586,1.925435 C 3.3457008,1.899301 3.2852395,1.8755059 3.2059062,1.8537306 Z M 1.0802873,0.81312195 3.1477831,0.81268035 3.144115,1.0639155 H 2.5544387 A 0.17858036,0.17009988 0 0 0 2.3811364,0.93464592 H 1.8264365 A 0.17919193,0.17068242 0 0 0 1.651611,1.0701724 L 1.0801479,1.0618635 Z M 2.3479631,1.2065653 2.3016058,1.0045426 h 0.079504 a 0.10541746,0.10041137 0 0 1 0.1051116,0.096037 v 1.694e-4 q 1.41e-4,0.00239 1.342e-4,0.00481 A 0.10580274,0.10077836 0 0 1 2.3811039,1.2065728 Z m 0.00821,0.7195866 c 0.1873993,0.00715 0.3538214,0.021582 0.4832187,0.041943 0.1499586,0.023623 0.1996737,0.047354 0.2152749,0.057944 -0.015625,0.010589 -0.065353,0.034317 -0.2153114,0.057939 -0.1294523,0.020389 -0.2958625,0.034818 -0.4832006,0.041942 z m 0,-0.6496828 h 0.024951 A 0.179143,0.17063582 0 0 0 2.5572622,1.1338068 H 3.1430365 L 3.1327658,1.835469 C 2.9343457,1.7902357 2.6620719,1.7597388 2.3561798,1.7486714 Z m -0.08334,-0.069904 H 2.2256414 L 2.179284,1.0045423 H 2.22648 Z m -0.1223151,0 H 2.1033262 L 2.0569689,1.0045423 h 0.047196 z m -0.1223152,0 H 1.981011 L 1.93466,1.0045426 h 0.047196 z m -0.1223152,0 h -0.079462 a 0.10604738,0.10101137 0 0 1 0,-0.2020227 h 0.033105 z m -0.8257831,-0.074797 0.5712918,0.00831 A 0.17919193,0.17068242 0 0 0 1.8264297,1.2764663 H 2.282788 v 0.469988 c -0.060368,-0.00151 -0.1210366,-0.00234 -0.1809044,-0.00234 -0.398815,0 -0.767296,0.03239 -1.0221644,0.089332 z M 0.8164165,0.89945341 a 0.09037267,0.08608102 0 0 1 0.089902,-0.0863317 h 0.1005802 l -5.71e-4,1.03827899 q -0.1247623,0.03342 -0.18990675,0.073661 z M 1.0523016,1.9119262 c 0.2458541,-0.0613 0.6382537,-0.097866 1.0495942,-0.097866 0.059867,0 0.1205531,8.201e-4 0.1809042,0.00234 v 0.037515 c -0.063849,-0.00168 -0.1283702,-0.00259 -0.1924021,-0.00259 -0.2705492,0 -0.5251484,0.014668 -0.716896,0.041301 -0.161279,0.022406 -0.3261479,0.055778 -0.3261479,0.133459 0,0.04782 0.05925,0.072816 0.1038146,0.087451 0.052846,0.017358 0.1276549,0.032826 0.2223327,0.045986 0.1917904,0.026645 0.4463958,0.041325 0.716896,0.041325 0.077463,0 0.1549613,-0.00123 0.2303383,-0.00369 0.2192196,-0.00708 0.4184222,-0.024548 0.5609134,-0.049172 0.176446,-0.03049 0.2517309,-0.066944 0.2517309,-0.1219007 0,-0.054956 -0.075284,-0.091458 -0.2517309,-0.12193 -0.1347057,-0.023307 -0.3202274,-0.04016 -0.5254604,-0.047943 v -0.037585 c 0.3231509,0.011834 0.6070389,0.045438 0.8025782,0.095175 0.1737489,0.044237 0.2250172,0.089443 0.2283319,0.1101927 l -4.62e-5,0.00312 h 1.388e-4 c -0.00232,0.036426 -0.1289938,0.1077685 -0.4726875,0.15842 -0.2119418,0.031276 -0.4667308,0.049323 -0.7368581,0.05219 -0.02362,2.737e-4 -0.0484,4.099e-4 -0.075756,4.099e-4 -0.1895887,0 -0.3725112,-0.00739 -0.5436487,-0.021926 a 0.03669459,0.03495203 0 1 0 -0.00652,0.069624 c 0.1732963,0.014734 0.3583837,0.022206 0.5501743,0.022206 0.013753,0 0.02686,-3.53e-5 0.039508,-9.91e-5 v 0.2104048 c -0.012642,7.06e-5 -0.025748,1.056e-4 -0.039508,1.056e-4 -0.17729,0 -0.34951,-0.00648 -0.5118467,-0.019283 C 1.4084062,2.4847954 1.2451579,2.4627054 1.1153568,2.4350244 V 2.2262683 c 0.08422,0.017324 0.1804151,0.032307 0.2867686,0.044622 a 0.03669459,0.03495203 0 0 0 0.00886,-0.069391 2.9371394,2.7976597 0 0 1 -0.3237689,-0.053011 C 0.81948856,2.0874154 0.81641244,2.0285689 0.81641244,2.026093 c 0,-0.020544 0.0496783,-0.06769 0.23588506,-0.114147 z m 1.2304921,0.011904 v 0.2044693 c -0.063329,0.00171 -0.1278199,0.00264 -0.1924018,0.00264 -0.2500738,0 -0.4892306,-0.012869 -0.6734194,-0.036228 -0.2070612,-0.026267 -0.2718638,-0.056337 -0.2906029,-0.06864 0.018734,-0.012296 0.083523,-0.04238 0.2905785,-0.068634 0.1841519,-0.023354 0.4233211,-0.03621 0.6734438,-0.03621 0.064038,-1.17e-5 0.1285654,9.147e-4 0.1924018,0.00259 z M 0.8164165,2.1270355 c 0.0495813,0.03067 0.12455403,0.05813 0.2255495,0.082772 V 2.4179059 C 0.81916865,2.3609869 0.8164165,2.3087218 0.8164165,2.3063914 Z m 0,0.2803967 c 0.0539661,0.033385 0.13792909,0.062949 0.2528809,0.08918 0.1294038,0.029604 0.2944742,0.053441 0.4792009,0.069275 L 1.5332638,2.8418794 C 1.3616677,2.8264953 1.2080888,2.80398 1.0871984,2.7764081 0.81949288,2.7153878 0.8164165,2.6564644 0.8164165,2.6539885 Z m 0,0.3475688 C 0.8658131,2.785561 0.94041376,2.81291 1.0408654,2.837452 L 1.02973,3.1099443 C 0.81900515,3.0541318 0.81641204,3.003888 0.81641204,3.0016457 Z m 0,0.3475982 c 0.0518255,0.03204 0.1312996,0.060584 0.2393651,0.086122 0.1274401,0.030042 0.2912695,0.054426 0.4755071,0.070871 V 3.4549944 C 0.9923122,3.4064987 0.8164165,3.3082544 0.8164165,3.2672206 Z"
     id="path842" />
</svg>
