<?xml version="1.0" encoding="UTF-8" standalone="no"?>
<svg
   xmlns:dc="http://purl.org/dc/elements/1.1/"
   xmlns:cc="http://creativecommons.org/ns#"
   xmlns:rdf="http://www.w3.org/1999/02/22-rdf-syntax-ns#"
   xmlns:svg="http://www.w3.org/2000/svg"
   xmlns="http://www.w3.org/2000/svg"
   xmlns:sodipodi="http://sodipodi.sourceforge.net/DTD/sodipodi-0.dtd"
   xmlns:inkscape="http://www.inkscape.org/namespaces/inkscape"
   width="16"
   height="16"
   viewBox="0 0 4.2333333 4.2333333"
   version="1.1"
   id="svg8"
   sodipodi:docname="handpump_partially.svg"
   inkscape:version="1.0 (4035a4f, 2020-05-01)">
  <defs
     id="defs18" />
  <sodipodi:namedview
     inkscape:document-rotation="0"
     pagecolor="#ffffff"
     bordercolor="#666666"
     borderopacity="1"
     objecttolerance="10"
     gridtolerance="10"
     guidetolerance="10"
     inkscape:pageopacity="0"
     inkscape:pageshadow="2"
     inkscape:window-width="1401"
     inkscape:window-height="953"
     id="namedview16"
     showgrid="false"
     inkscape:zoom="22.836776"
     inkscape:cx="5.28344"
     inkscape:cy="9.5785233"
     inkscape:window-x="1495"
     inkscape:window-y="23"
     inkscape:window-maximized="0"
     inkscape:current-layer="svg8" />
  <metadata
     id="metadata5">
    <rdf:RDF>
      <cc:Work
         rdf:about="">
        <dc:format>image/svg+xml</dc:format>
        <dc:type
           rdf:resource="http://purl.org/dc/dcmitype/StillImage" />
        <dc:title></dc:title>
      </cc:Work>
    </rdf:RDF>
  </metadata>
  <path
     id="path843"
     style="fill:#ffff00;stroke:#000001;stroke-width:0.0518044"
     d="M 4.192047,2.1050808 A 2.0869663,2.0812066 0 0 1 2.1050808,4.1862873 2.0869663,2.0812066 0 0 1 0.01811444,2.1050808 2.0869663,2.0812066 0 0 1 2.1050808,0.02387416 2.0869663,2.0812066 0 0 1 4.192047,2.1050808 Z" />
  <g
     id="g872"
     transform="matrix(0.04354669,0,0,0.04821206,0.68792705,0.53389076)">
    <path
       id="path866"
       d="M 7.56,35 H 8.44 C 12.057,35 15,32.058 15,28.44 15,27.329 14.715,26.228 14.175,25.254 L 10.36,18.387 C 9.884,17.532 8.979,17 8,17 7.021,17 6.116,17.532 5.641,18.388 L 1.826,25.256 C 1.285,26.229 1,27.33 1,28.44 1,32.058 3.942,35 7.56,35 Z M 3.573,26.227 7.388,19.36 c 0.246,-0.444 0.977,-0.444 1.223,0 l 3.815,6.866 C 12.802,26.902 13,27.668 13,28.44 13,30.955 10.955,33 8.44,33 H 7.56 C 5.045,33 3,30.955 3,28.44 3,27.668 3.198,26.902 3.573,26.227 Z" />
    <path
       id="path868"
       d="m 15,53 c 0,2.206 -1.794,4 -4,4 v 2 c 3.309,0 6,-2.691 6,-6 z" />
    <path
       id="path870"
       d="m 47,49 h 4 v -4 h 1 c 1.654,0 3,-1.346 3,-3 V 29 h 2 V 23 H 54.579 C 54.381,22.301 54.117,21.632 53.793,21 H 58 v -8.594 l 0.817,0.35 c 0.377,0.162 0.776,0.244 1.184,0.244 1.203,0 2.285,-0.714 2.757,-1.818 0.316,-0.737 0.326,-1.554 0.028,-2.297 C 62.488,8.141 61.919,7.557 61.182,7.242 L 47.187,1.245 C 46.812,1.083 46.413,1 46.003,1 44.799,1 43.716,1.714 43.244,2.817 43.081,3.198 43.003,3.599 43.003,4 H 43 v 7 h -2 v 4.425 c -0.041,0.012 -0.081,0.026 -0.122,0.039 L 37,11.586 35.324,13.262 15.262,2.797 C 14.265,2.275 13.143,2 12.016,2 8.147,2 5,5.147 5,9.016 V 11 c 0,1.654 1.346,3 3,3 1.654,0 3,-1.346 3,-3 V 9.016 C 11,8.456 11.456,8 12.016,8 c 0.162,0 0.324,0.04 0.469,0.116 l 18.391,9.595 -1.29,1.289 3.868,3.868 C 33.441,22.911 33.433,22.957 33.421,23 H 31 v 6 h 2 v 13 c 0,1.654 1.346,3 3,3 h 1 v 4 h 4 V 61 H 16.974 C 19.412,59.175 21,56.273 21,53 v -0.275 c 0,-1.98 -0.581,-3.898 -1.68,-5.547 L 13.386,38.277 C 12.854,37.478 11.961,37 11,37 10.039,37 9.146,37.478 8.613,38.277 L 2.68,47.178 C 1.581,48.827 1,50.745 1,52.725 V 53 c 0,5.514 4.486,10 10,10 H 63 V 61 H 47 Z M 3,53 v -0.275 c 0,-1.584 0.465,-3.119 1.344,-4.438 l 5.934,-8.901 c 0.322,-0.484 1.123,-0.484 1.445,0 l 5.934,8.901 C 18.535,49.606 19,51.141 19,52.725 V 53 c 0,4.411 -3.589,8 -8,8 C 6.589,61 3,57.411 3,53 Z M 44,17 c 3.841,0 7.225,2.462 8.478,6 H 35.522 C 36.775,19.462 40.159,17 44,17 Z M 45.083,3.605 C 45.239,3.238 45.601,3 46.003,3 c 0.136,0 0.268,0.027 0.394,0.081 l 13.999,6 c 0.245,0.105 0.435,0.299 0.534,0.548 0.101,0.251 0.098,0.515 -0.011,0.766 -0.21,0.492 -0.81,0.737 -1.313,0.523 l -13.999,-6 C 45.362,4.813 45.172,4.619 45.073,4.37 44.972,4.12 44.975,3.855 45.083,3.605 Z M 45,6.834 56,11.548 V 19 H 52.468 C 51.056,17.3 49.153,16.04 47,15.425 V 11 H 45 Z M 43,13 h 2 v 2.047 C 44.67,15.017 44.337,15 44,15 c -0.337,0 -0.67,0.017 -1,0.047 z M 13.411,6.343 C 12.982,6.119 12.5,6 12.016,6 10.353,6 9,7.353 9,9.016 V 11 C 9,11.551 8.552,12 8,12 7.448,12 7,11.551 7,11 V 9.016 C 7,6.25 9.25,4 12.016,4 c 0.806,0 1.607,0.197 2.32,0.57 l 19.505,10.175 -1.483,1.483 z M 32.414,19 37,14.414 l 1.872,1.872 c -1.94,1.028 -3.551,2.619 -4.591,4.58 z M 33,25 h 22 v 2 H 33 Z m 2,17 V 29 h 18 v 13 c 0,0.551 -0.448,1 -1,1 H 36 c -0.552,0 -1,-0.449 -1,-1 z m 4,3 h 10 v 2 H 39 Z m 4,4 h 2 v 12 h -2 z" />
  </g>
</svg>
