<?xml version="1.0" encoding="UTF-8" standalone="no"?>
<svg
   xmlns:dc="http://purl.org/dc/elements/1.1/"
   xmlns:cc="http://creativecommons.org/ns#"
   xmlns:rdf="http://www.w3.org/1999/02/22-rdf-syntax-ns#"
   xmlns:svg="http://www.w3.org/2000/svg"
   xmlns="http://www.w3.org/2000/svg"
   xmlns:sodipodi="http://sodipodi.sourceforge.net/DTD/sodipodi-0.dtd"
   xmlns:inkscape="http://www.inkscape.org/namespaces/inkscape"
   width="16"
   height="16"
   viewBox="0 0 4.2333333 4.2333333"
   version="1.1"
   id="svg8"
   sodipodi:docname="improvedspring.svg"
   inkscape:version="1.0 (4035a4f, 2020-05-01)">
  <defs
     id="defs18" />
  <sodipodi:namedview
     inkscape:document-rotation="0"
     pagecolor="#ffffff"
     bordercolor="#666666"
     borderopacity="1"
     objecttolerance="10"
     gridtolerance="10"
     guidetolerance="10"
     inkscape:pageopacity="0"
     inkscape:pageshadow="2"
     inkscape:window-width="1401"
     inkscape:window-height="953"
     id="namedview16"
     showgrid="false"
     inkscape:zoom="45.759805"
     inkscape:cx="7.9562107"
     inkscape:cy="7.7797545"
     inkscape:window-x="1495"
     inkscape:window-y="23"
     inkscape:window-maximized="0"
     inkscape:current-layer="svg8" />
  <metadata
     id="metadata5">
    <rdf:RDF>
      <cc:Work
         rdf:about="">
        <dc:format>image/svg+xml</dc:format>
        <dc:type
           rdf:resource="http://purl.org/dc/dcmitype/StillImage" />
        <dc:title />
      </cc:Work>
    </rdf:RDF>
  </metadata>
  <path
     id="path843"
     style="fill:#ffffff;stroke:#000001;stroke-width:0.0518044"
     d="M 4.192047,2.1050808 A 2.0869663,2.0812066 0 0 1 2.1050808,4.1862873 2.0869663,2.0812066 0 0 1 0.01811444,2.1050808 2.0869663,2.0812066 0 0 1 2.1050808,0.02387416 2.0869663,2.0812066 0 0 1 4.192047,2.1050808 Z" />
  <g
     transform="matrix(0.01296498,0,0,0.01297716,0.50530228,0.43075504)"
     id="g975">
    <g
       id="g918">
	<g
   id="g916">
		<path
   d="m 134.475,8.551 c -6.8,-11.6 -14,-11.2 -20.8,0 -31.2,46.4 -78.4,116 -78.4,150.8 0,24.4 10,46.8 26,62.8 16,16 38.4,26 62.8,26 24.4,0 46.8,-10 62.8,-26 16,-16 26,-38.4 26,-62.8 0,-35.2 -47.2,-104.4 -78.4,-150.8 z m 53.6,190.4 c -6.4,10.4 -15.6,19.6 -26.8,26 -5.2,2.8 -11.6,1.2 -14.4,-4 -3.2,-5.6 -1.2,-12 4,-14.8 8,-4.4 14.4,-10.8 19.2,-18.4 4.8,-7.6 7.6,-16.4 8,-25.6 0.4,-6 5.2,-10.4 11.2,-10 6,0.4 10.4,5.2 10,11.2 -0.8,12.8 -4.8,24.8 -11.2,35.6 z"
   id="path914" />

	</g>

</g>
    <g
       id="g920">
</g>
    <g
       id="g922">
</g>
    <g
       id="g924">
</g>
    <g
       id="g926">
</g>
    <g
       id="g928">
</g>
    <g
       id="g930">
</g>
    <g
       id="g932">
</g>
    <g
       id="g934">
</g>
    <g
       id="g936">
</g>
    <g
       id="g938">
</g>
    <g
       id="g940">
</g>
    <g
       id="g942">
</g>
    <g
       id="g944">
</g>
    <g
       id="g946">
</g>
    <g
       id="g948">
</g>
  </g>
</svg>
