<?xml version="1.0" encoding="UTF-8" standalone="no"?>
<svg
   xmlns:dc="http://purl.org/dc/elements/1.1/"
   xmlns:cc="http://creativecommons.org/ns#"
   xmlns:rdf="http://www.w3.org/1999/02/22-rdf-syntax-ns#"
   xmlns:svg="http://www.w3.org/2000/svg"
   xmlns="http://www.w3.org/2000/svg"
   xmlns:sodipodi="http://sodipodi.sourceforge.net/DTD/sodipodi-0.dtd"
   xmlns:inkscape="http://www.inkscape.org/namespaces/inkscape"
   inkscape:version="1.0 (4035a4f, 2020-05-01)"
   sodipodi:docname="otherwaterpoint.svg"
   id="svg8"
   version="1.1"
   viewBox="0 0 4.2333333 4.2333333"
   height="16"
   width="16">
  <defs
     id="defs18" />
  <sodipodi:namedview
     inkscape:current-layer="svg8"
     inkscape:window-maximized="0"
     inkscape:window-y="23"
     inkscape:window-x="1495"
     inkscape:cy="5.6503162"
     inkscape:cx="15.843957"
     inkscape:zoom="20.523491"
     showgrid="false"
     id="namedview16"
     inkscape:window-height="953"
     inkscape:window-width="1401"
     inkscape:pageshadow="2"
     inkscape:pageopacity="0"
     guidetolerance="10"
     gridtolerance="10"
     objecttolerance="10"
     borderopacity="1"
     bordercolor="#666666"
     pagecolor="#ffffff"
     inkscape:document-rotation="0" />
  <metadata
     id="metadata5">
    <rdf:RDF>
      <cc:Work
         rdf:about="">
        <dc:format>image/svg+xml</dc:format>
        <dc:type
           rdf:resource="http://purl.org/dc/dcmitype/StillImage" />
        <dc:title />
      </cc:Work>
    </rdf:RDF>
  </metadata>
  <path
     d="M 4.192047,2.1050808 A 2.0869663,2.0812066 0 0 1 2.1050808,4.1862873 2.0869663,2.0812066 0 0 1 0.01811444,2.1050808 2.0869663,2.0812066 0 0 1 2.1050808,0.02387416 2.0869663,2.0812066 0 0 1 4.192047,2.1050808 Z"
     style="fill:#ffffff;stroke:#000001;stroke-width:0.0518044"
     id="path843" />
  <g
     transform="matrix(0.00752598,0,0,0.00697796,0.17048889,0.3532091)"
     id="g900">
    <g
       id="g843">
	<g
   id="g841">
		<path
   d="M 256,0 C 153.991,0 71,82.991 71,185 c 0,67.87 23.299,134.475 65.605,187.545 L 247.775,512 h 16.45 L 375.394,372.545 C 417.701,319.475 441,252.87 441,185 441,82.991 358.009,0 256,0 Z m 0,291.059 c -33.137,0 -60,-26.863 -60,-60 0,-22.85 7.757,-45.024 22,-62.892 L 255.647,120.942 294,168.167 c 14.243,17.867 22,40.041 22,62.892 0,33.137 -26.863,60 -60,60 z"
   id="path839" />

	</g>

</g>
    <g
       id="g845">
</g>
    <g
       id="g847">
</g>
    <g
       id="g849">
</g>
    <g
       id="g851">
</g>
    <g
       id="g853">
</g>
    <g
       id="g855">
</g>
    <g
       id="g857">
</g>
    <g
       id="g859">
</g>
    <g
       id="g861">
</g>
    <g
       id="g863">
</g>
    <g
       id="g865">
</g>
    <g
       id="g867">
</g>
    <g
       id="g869">
</g>
    <g
       id="g871">
</g>
    <g
       id="g873">
</g>
  </g>
</svg>
