<?xml version="1.0" encoding="UTF-8" standalone="no"?>
<svg
   xmlns:dc="http://purl.org/dc/elements/1.1/"
   xmlns:cc="http://creativecommons.org/ns#"
   xmlns:rdf="http://www.w3.org/1999/02/22-rdf-syntax-ns#"
   xmlns:svg="http://www.w3.org/2000/svg"
   xmlns="http://www.w3.org/2000/svg"
   xmlns:sodipodi="http://sodipodi.sourceforge.net/DTD/sodipodi-0.dtd"
   xmlns:inkscape="http://www.inkscape.org/namespaces/inkscape"
   inkscape:version="1.0 (4035a4f, 2020-05-01)"
   sodipodi:docname="solarpump_partially.svg"
   id="svg8"
   version="1.1"
   viewBox="0 0 4.2333333 4.2333333"
   height="16"
   width="16">
  <defs
     id="defs18" />
  <sodipodi:namedview
     inkscape:current-layer="svg8"
     inkscape:window-maximized="0"
     inkscape:window-y="23"
     inkscape:window-x="1495"
     inkscape:cy="13.491514"
     inkscape:cx="15.84408"
     inkscape:zoom="13.130073"
     showgrid="false"
     id="namedview16"
     inkscape:window-height="953"
     inkscape:window-width="1401"
     inkscape:pageshadow="2"
     inkscape:pageopacity="0"
     guidetolerance="10"
     gridtolerance="10"
     objecttolerance="10"
     borderopacity="1"
     bordercolor="#666666"
     pagecolor="#ffffff"
     inkscape:document-rotation="0" />
  <metadata
     id="metadata5">
    <rdf:RDF>
      <cc:Work
         rdf:about="">
        <dc:format>image/svg+xml</dc:format>
        <dc:type
           rdf:resource="http://purl.org/dc/dcmitype/StillImage" />
        <dc:title></dc:title>
      </cc:Work>
    </rdf:RDF>
  </metadata>
  <path
     d="M 4.192047,2.1050808 A 2.0869663,2.0812066 0 0 1 2.1050808,4.1862873 2.0869663,2.0812066 0 0 1 0.01811444,2.1050808 2.0869663,2.0812066 0 0 1 2.1050808,0.02387416 2.0869663,2.0812066 0 0 1 4.192047,2.1050808 Z"
     style="fill:#ffff00;stroke:#000001;stroke-width:0.0518044"
     id="path843" />
  <g
     transform="matrix(0.00574617,0,0,0.00565846,0.65558699,0.45860994)"
     id="g1008">
    <g
       id="g843">
	<g
   id="g841">
		<path
   d="m 112.485,289.022 c -5.659,0 -10.836,3.186 -13.388,8.237 L 54.521,385.511 H 241 v -96.489 z"
   id="path839" />

	</g>

</g>
    <g
       id="g849">
	<g
   id="g847">
		<path
   d="m 412.9,297.259 c -2.552,-5.051 -7.729,-8.237 -13.388,-8.237 H 270.998 v 96.489 h 186.478 z"
   id="path845" />

	</g>

</g>
    <g
       id="g855">
	<g
   id="g853">
		<path
   d="M 510.373,490.237 472.63,415.511 H 270.998 V 512 h 225.987 c 11.155,0 18.424,-11.79 13.388,-21.763 z"
   id="path851" />

	</g>

</g>
    <g
       id="g861">
	<g
   id="g859">
		<path
   d="M 39.369,415.511 1.626,490.237 C -3.402,500.193 3.841,512 15.013,512 H 241 v -96.489 z"
   id="path857" />

	</g>

</g>
    <g
       id="g867">
	<g
   id="g865">
		<path
   d="m 255.999,77.011 c -30.326,0 -54.997,24.673 -54.997,55 0,30.327 24.672,55 54.997,55 30.325,0 54.997,-24.673 54.997,-55 0,-30.327 -24.671,-55 -54.997,-55 z"
   id="path863" />

	</g>

</g>
    <g
       id="g873">
	<g
   id="g871">
		<path
   d="m 255.999,0 c -8.284,0 -15,6.716 -15,15 v 33.007 c 0,8.284 6.716,15 15,15 8.284,0 15,-6.716 15,-15 V 15 c 0,-8.284 -6.716,-15 -15,-15 z"
   id="path869" />

	</g>

</g>
    <g
       id="g879">
	<g
   id="g877">
		<path
   d="m 255.999,201.016 c -8.284,0 -15,6.716 -15,15 v 33.007 c 0,8.284 6.716,15 15,15 8.284,0 15,-6.716 15,-15 v -33.007 c 0,-8.284 -6.716,-15 -15,-15 z"
   id="path875" />

	</g>

</g>
    <g
       id="g885">
	<g
   id="g883">
		<path
   d="M 207.209,62.005 183.872,38.666 c -5.858,-5.858 -15.355,-5.858 -21.214,0 -5.857,5.857 -5.858,15.355 0,21.213 l 23.337,23.339 c 5.86,5.859 15.358,5.857 21.214,0 5.857,-5.858 5.858,-15.355 0,-21.213 z"
   id="path881" />

	</g>

</g>
    <g
       id="g891">
	<g
   id="g889">
		<path
   d="m 349.34,204.145 -23.337,-23.339 c -5.858,-5.858 -15.355,-5.858 -21.214,0 -5.857,5.857 -5.858,15.355 0,21.213 l 23.337,23.339 c 5.861,5.859 15.358,5.856 21.214,0 5.857,-5.858 5.858,-15.355 0,-21.213 z"
   id="path887" />

	</g>

</g>
    <g
       id="g897">
	<g
   id="g895">
		<path
   d="m 171.999,117.011 h -33.005 c -8.284,0 -15,6.716 -15,15 0,8.284 6.716,15 15,15 h 33.005 c 8.284,0 15,-6.716 15,-15 0,-8.284 -6.716,-15 -15,-15 z"
   id="path893" />

	</g>

</g>
    <g
       id="g903">
	<g
   id="g901">
		<path
   d="m 373.004,117.011 h -33.005 c -8.284,0 -15,6.716 -15,15 0,8.284 6.716,15 15,15 h 33.005 c 8.284,0 15,-6.716 15,-15 0,-8.284 -6.716,-15 -15,-15 z"
   id="path899" />

	</g>

</g>
    <g
       id="g909">
	<g
   id="g907">
		<path
   d="m 207.209,180.805 c -5.859,-5.858 -15.354,-5.857 -21.214,0 l -23.337,23.339 c -5.858,5.858 -5.857,15.355 0,21.213 5.86,5.858 15.355,5.857 21.214,0 l 23.337,-23.339 c 5.858,-5.858 5.857,-15.356 0,-21.213 z"
   id="path905" />

	</g>

</g>
    <g
       id="g915">
	<g
   id="g913">
		<path
   d="m 349.34,38.666 c -5.859,-5.857 -15.354,-5.857 -21.214,0 l -23.337,23.339 c -5.858,5.858 -5.857,15.355 0,21.213 5.86,5.858 15.355,5.857 21.214,0 L 349.34,59.879 c 5.858,-5.858 5.857,-15.356 0,-21.213 z"
   id="path911" />

	</g>

</g>
    <g
       id="g917">
</g>
    <g
       id="g919">
</g>
    <g
       id="g921">
</g>
    <g
       id="g923">
</g>
    <g
       id="g925">
</g>
    <g
       id="g927">
</g>
    <g
       id="g929">
</g>
    <g
       id="g931">
</g>
    <g
       id="g933">
</g>
    <g
       id="g935">
</g>
    <g
       id="g937">
</g>
    <g
       id="g939">
</g>
    <g
       id="g941">
</g>
    <g
       id="g943">
</g>
    <g
       id="g945">
</g>
  </g>
</svg>
